#!OML:ASF X:\für Bonn\!DataBase\2005_08_12_Daniel\c3d\Daniel.ASF
:FULLY-SPECIFIED
:DEGREES
77
root 10.5944 15.8673 12.0335 893.625 -48.9749 -902.988
lowerback 39.4594 6.27293 -6.18635
upperback 9.4133 2.3409 -4.95704
thorax -8.67112 0.205164 -2.91158
lowerneck -6.6521 -1.84756 -6.30753
upperneck -2.18528 -2.12965 1.883
head 0.533901 -1.05559 1.60647
rclavicle -2.06736e-014 7.95139e-015
rhumerus -35.5017 7.53902 -93.6739
rradius 60.7952
rwrist 3.11021
rhand -30.1507 15.3333
rfingers 7.12502
rthumb -3.46295 -14.6183
lclavicle -2.06736e-014 7.95139e-015
lhumerus -29.7082 26.2683 75.1137
lradius 64.5859
lwrist -8.84128
lhand -26.5466 -1.50138
lfingers 7.12502
lthumb 0.0177767 28.4784
rfemur 13.7549 -5.41609 17.7282
rtibia 60.4814
rfoot -2.06421 -2.96589
rtoes -10.4334
lfemur -35.4612 2.88765 -24.209
ltibia 63.6354
lfoot -18.7514 -10.5647
ltoes -1.83582
78
root 10.4871 15.8883 11.9576 893.655 -48.8265 -902.98
lowerback 39.5249 6.24834 -6.23486
upperback 9.40089 2.27475 -4.96728
thorax -8.70759 0.172534 -2.87309
lowerneck -6.61084 -1.7846 -6.12337
upperneck -2.23776 -2.06241 1.74304
head 0.502497 -1.02416 1.53066
rclavicle 3.18055e-015 -9.54166e-015
rhumerus -35.5048 7.35805 -93.6025
rradius 60.7511
rwrist 3.16836
rhand -30.1177 15.3005
rfingers 7.12502
rthumb -3.43108 -14.6517
lclavicle 3.18055e-015 -9.54166e-015
lhumerus -29.6075 26.0263 75.2484
lradius 64.8485
lwrist -8.5753
lhand -26.6244 -1.71907
lfingers 7.12502
lthumb -0.0573295 28.2607
rfemur 12.6134 -5.60352 17.3702
rtibia 61.9188
rfoot -2.68293 -2.14934
rtoes -10.7927
lfemur -34.9976 2.87251 -24.2409
ltibia 63.7436
lfoot -19.2894 -10.3709
ltoes -1.77657
79
root 10.3808 15.9098 11.8821 893.651 -48.6235 -902.927
lowerback 39.5936 6.22621 -6.22521
upperback 9.36528 2.23231 -5.00546
thorax -8.76939 0.152878 -2.90459
lowerneck -6.53126 -1.72928 -5.93342
upperneck -2.25022 -2.00536 1.68045
head 0.479199 -0.996676 1.47889
rclavicle -5.48646e-014 3.81667e-014
rhumerus -35.582 7.11287 -93.5872
rradius 60.837
rwrist 3.27361
rhand -30.0761 14.9921
rfingers 7.12502
rthumb -3.39092 -14.9606
lclavicle -5.48646e-014 3.81667e-014
lhumerus -29.5348 25.8062 75.3422
lradius 65.1182
lwrist -8.42322
lhand -26.5444 -1.91048
lfingers 7.12502
lthumb 0.0199883 28.0693
rfemur 11.3882 -5.65626 17.136
rtibia 63.3105
rfoot -3.48124 -1.50167
rtoes -11.0532
lfemur -34.5433 2.8534 -24.2253
ltibia 63.8464
lfoot -19.8704 -10.0961
ltoes -2.00645
80
root 10.2748 15.9314 11.8077 893.617 -48.3888 -902.884
lowerback 39.6808 6.21543 -6.25561
upperback 9.35012 2.18487 -5.01476
thorax -8.81535 0.127746 -2.88249
lowerneck -6.55456 -1.65758 -5.77893
upperneck -2.22058 -1.91821 1.57713
head 0.48541 -0.955098 1.42063
rclavicle -1.03368e-014 3.49861e-014
rhumerus -35.6249 6.8713 -93.4996
rradius 60.9396
rwrist 3.38324
rhand -29.9664 14.7619
rfingers 7.12502
rthumb -3.28499 -15.1925
lclavicle -1.03368e-014 3.49861e-014
lhumerus -29.4663 25.6097 75.48
lradius 65.4028
lwrist -8.26242
lhand -26.5623 -2.0793
lfingers 7.12502
lthumb 0.00263902 27.9004
rfemur 10.1373 -5.66314 16.8717
rtibia 64.6656
rfoot -4.43425 -0.765951
rtoes -11.5591
lfemur -34.0333 2.88366 -24.2259
ltibia 63.9211
lfoot -20.4084 -9.85077
ltoes -1.99209
81
root 10.1694 15.9533 11.7354 893.569 -48.1949 -902.814
lowerback 39.7577 6.15574 -6.22637
upperback 9.32246 2.10506 -5.03717
thorax -8.87181 0.090218 -2.89143
lowerneck -6.43429 -1.57725 -5.59064
upperneck -2.26476 -1.83034 1.47908
head 0.444048 -0.912307 1.35897
rclavicle 3.49861e-014 -1.90833e-014
rhumerus -35.7205 6.59237 -93.4589
rradius 61.0971
rwrist 3.44248
rhand -29.8709 14.4672
rfingers 7.12502
rthumb -3.19281 -15.4886
lclavicle 3.49861e-014 -1.90833e-014
lhumerus -29.4121 25.3398 75.5691
lradius 65.6813
lwrist -8.11764
lhand -26.5416 -2.08165
lfingers 7.12502
lthumb 0.0226675 27.8981
rfemur 8.84163 -5.66653 16.6557
rtibia 65.9601
rfoot -5.53449 0.0560106
rtoes -11.8628
lfemur -33.5373 2.88454 -24.2212
ltibia 63.9913
lfoot -20.9404 -9.61049
ltoes -1.92508
82
root 10.0656 15.9724 11.6636 893.503 -47.9722 -902.726
lowerback 39.8065 6.10327 -6.16148
upperback 9.30767 2.05239 -5.05631
thorax -8.9043 0.0644235 -2.92481
lowerneck -6.27991 -1.51053 -5.48105
upperneck -2.34798 -1.7573 1.46382
head 0.38779 -0.8753 1.33743
rclavicle -1.98785e-014 2.70347e-014
rhumerus -35.7629 6.30258 -93.3893
rradius 61.1926
rwrist 3.478
rhand -29.8523 14.2253
rfingers 7.12502
rthumb -3.17479 -15.7308
lclavicle -1.98785e-014 2.70347e-014
lhumerus -29.3917 25.0273 75.6847
lradius 66.0198
lwrist -7.91873
lhand -26.5745 -2.01988
lfingers 7.12502
lthumb -0.00913558 27.9599
rfemur 7.48997 -5.611 16.501
rtibia 67.2147
rfoot -6.61318 0.859264
rtoes -11.7353
lfemur -33.0314 2.8389 -24.1974
ltibia 64.0508
lfoot -21.4393 -9.29234
ltoes -1.98413
83
root 9.96143 15.9904 11.5934 893.411 -47.7371 -902.638
lowerback 39.8488 6.03563 -6.11239
upperback 9.29656 1.97504 -5.07234
thorax -8.93141 0.0266883 -2.93619
lowerneck -6.15717 -1.44921 -5.39795
upperneck -2.33696 -1.68554 1.42333
head 0.366576 -0.839558 1.31218
rclavicle -7.95139e-015 5.40694e-014
rhumerus -35.9022 5.99103 -93.3445
rradius 61.3979
rwrist 3.64995
rhand -29.7702 13.7976
rfingers 7.12502
rthumb -3.09549 -16.1597
lclavicle -7.95139e-015 5.40694e-014
lhumerus -29.3195 24.8208 75.78
lradius 66.2286
lwrist -7.88332
lhand -26.5727 -2.0273
lfingers 7.12502
lthumb -0.00740419 27.9524
rfemur 6.15566 -5.55451 16.3291
rtibia 68.4071
rfoot -7.628 1.65344
rtoes -11.4927
lfemur -32.4985 2.84879 -24.1834
ltibia 64.1103
lfoot -21.9908 -8.99031
ltoes -2.24712
84
root 9.85869 16.0091 11.5239 893.304 -47.5059 -902.527
lowerback 39.8749 5.95363 -6.08027
upperback 9.2896 1.88101 -5.05808
thorax -8.9497 -0.0186265 -2.8988
lowerneck -5.99339 -1.36606 -5.37542
upperneck -2.39517 -1.58416 1.43433
head 0.317272 -0.787667 1.31478
rclavicle -4.77083e-014 2.70347e-014
rhumerus -35.9636 5.76737 -93.2533
rradius 61.533
rwrist 3.69669
rhand -29.6554 13.6133
rfingers 7.12502
rthumb -2.98471 -16.3456
lclavicle -4.77083e-014 2.70347e-014
lhumerus -29.3114 24.6152 75.8948
lradius 66.5185
lwrist -7.87393
lhand -26.6172 -1.85747
lfingers 7.12502
lthumb -0.0503214 28.1223
rfemur 4.77158 -5.53538 16.196
rtibia 69.5563
rfoot -8.46546 2.31698
rtoes -11.109
lfemur -31.9711 2.82219 -24.1467
ltibia 64.1621
lfoot -22.5208 -8.67433
ltoes -2.28789
